HIERARCHY
ROOT Hips
{
	OFFSET 0.000000 0.000000 0.000000
	CHANNELS 6 Xposition Yposition Zposition Yrotation Xrotation Zrotation
	JOINT Chest
	{
		OFFSET 0.000000 -0.009281 11.569106
		CHANNELS 3 Yrotation Xrotation Zrotation
		JOINT Chest2
		{
			OFFSET -0.000000 0.016865 9.269641
			CHANNELS 3 Yrotation Xrotation Zrotation
			JOINT Chest3
			{
				OFFSET -0.000000 0.000001 8.374491
				CHANNELS 3 Yrotation Xrotation Zrotation
				JOINT Chest4
				{
					OFFSET -0.000000 0.000001 8.374493
					CHANNELS 3 Yrotation Xrotation Zrotation
					JOINT Neck
					{
						OFFSET -0.000000 0.000002 12.152554
						CHANNELS 3 Yrotation Xrotation Zrotation
						JOINT Head
						{
							OFFSET -0.000000 0.040101 7.802319
							CHANNELS 3 Yrotation Xrotation Zrotation
							End Site
							{
								OFFSET -0.000000 0.020947 14.853096
							}
						}
					}
					JOINT RightCollar
					{
						OFFSET 2.894404 0.000001 6.791374
						CHANNELS 3 Yrotation Xrotation Zrotation
						JOINT RightShoulder
						{
							OFFSET 13.574684 0.000001 0.000000
							CHANNELS 3 Yrotation Xrotation Zrotation
							JOINT RightElbow
							{
								OFFSET 23.923903 0.000002 0.000000
								CHANNELS 3 Yrotation Xrotation Zrotation
								JOINT RightWrist
								{
									OFFSET 19.846718 0.012767 0.000000
									CHANNELS 3 Yrotation Xrotation Zrotation
									End Site
									{
										OFFSET 14.973145 0.000001 0.000000
									}
								}
							}
						}
					}
					JOINT LeftCollar
					{
						OFFSET -2.894404 0.000001 6.791374
						CHANNELS 3 Yrotation Xrotation Zrotation
						JOINT LeftShoulder
						{
							OFFSET -13.574684 -0.000001 0.000000
							CHANNELS 3 Yrotation Xrotation Zrotation
							JOINT LeftElbow
							{
								OFFSET -23.923903 -0.000002 0.000000
								CHANNELS 3 Yrotation Xrotation Zrotation
								JOINT LeftWrist
								{
									OFFSET -19.846718 0.012763 0.000000
									CHANNELS 3 Yrotation Xrotation Zrotation
									End Site
									{
										OFFSET -14.973145 -0.000001 0.000000
									}
								}
							}
						}
					}
				}
			}
		}
	}
	JOINT RightHip
	{
		OFFSET 9.469263 0.004643 0.045487
		CHANNELS 3 Yrotation Xrotation Zrotation
		JOINT RightKnee
		{
			OFFSET 0.000000 0.002661 -40.478676
			CHANNELS 3 Yrotation Xrotation Zrotation
			JOINT RightAnkle
			{
				OFFSET 0.000000 0.049106 -35.224068
				CHANNELS 3 Yrotation Xrotation Zrotation
				JOINT RightToe
				{
					OFFSET -0.000001 12.539529 -6.151390
					CHANNELS 3 Yrotation Xrotation Zrotation
					End Site
					{
						OFFSET -0.000001 5.044994 -1.291870
					}
				}
			}
		}
	}
	JOINT LeftHip
	{
		OFFSET -9.469263 0.004641 0.045487
		CHANNELS 3 Yrotation Xrotation Zrotation
		JOINT LeftKnee
		{
			OFFSET 0.000000 0.002661 -40.478676
			CHANNELS 3 Yrotation Xrotation Zrotation
			JOINT LeftAnkle
			{
				OFFSET 0.000000 0.049106 -35.224068
				CHANNELS 3 Yrotation Xrotation Zrotation
				JOINT LeftToe
				{
					OFFSET -0.000001 12.539529 -6.151390
					CHANNELS 3 Yrotation Xrotation Zrotation
					End Site
					{
						OFFSET -0.000001 5.044994 -1.291870
					}
				}
			}
		}
	}
}
MOTION
Frames: 15
Frame Time: 0.016667
59.133945 -43.995789 82.314789 -1.996545 -1.577638 -378.892942 -1.170004 -2.176386 3.453387 -0.576028 -0.978221 1.540469 -0.576028 -0.978220 1.540468 -0.429549 -0.735124 1.154401 -1.802143 -21.062837 1.886026 -2.719294 -2.917764 2.896064 9.640140 9.682726 0.048746 41.017038 -14.072349 -24.039033 -34.867248 -64.817682 102.506414 -54.579792 33.100955 38.411980 -9.065306 4.877570 -4.353514 -39.841153 -8.577156 26.820182 27.556053 -57.700113 -90.411638 30.867107 16.040266 -68.189487 1.581329 2.550923 -4.913938 4.125085 -20.899491 4.241817 13.583347 5.673778 22.604308 -0.641373 -2.777185 -0.529430 3.099051 7.917939 0.811116 -0.194278 -2.357317 0.199190 1.982188 2.904590 10.542359 -1.292750 -0.002891 0.082647 
59.083279 -43.993416 82.396362 -2.125328 -1.701660 -382.092421 -1.014083 -2.232139 3.428186 -0.531503 -0.988059 1.542026 -0.531503 -0.988060 1.542024 -0.396126 -0.742392 1.155630 -1.808549 -20.999529 1.896972 -2.726981 -2.800092 2.913428 9.654225 9.846051 0.063142 40.897687 -14.054913 -24.068613 -34.931773 -64.802417 102.677776 -54.493035 33.102061 38.458900 -9.037291 4.907609 -4.356779 -39.934907 -8.601127 26.752251 27.463380 -57.701493 -90.222168 30.914956 15.980705 -68.087110 1.901867 2.419523 -5.203175 4.139390 -20.441003 3.574383 13.077884 5.384746 22.106218 -0.314318 -2.666361 -0.483623 3.486287 7.213049 0.556946 -0.103437 -2.181155 0.128269 2.061598 3.145812 10.150247 -1.201012 0.115902 0.070157 
59.031311 -43.911377 82.646881 -1.931482 -1.754960 -385.278048 -1.169045 -2.257582 3.415109 -0.505718 -0.992431 1.548505 -0.505718 -0.992431 1.548506 -0.376767 -0.745611 1.160531 -1.795370 -20.926235 1.889305 -2.704452 -2.664152 2.902674 9.703921 10.032601 0.089365 40.786403 -14.141013 -24.079105 -34.809280 -64.815210 102.679463 -54.439726 33.093516 38.496124 -8.974046 4.914099 -4.369069 -40.027139 -8.588706 26.659922 27.366545 -57.700072 -90.043347 30.918675 15.952559 -67.998563 1.918723 2.241659 -5.678664 4.117936 -19.852956 3.258165 12.296106 5.018978 21.250764 0.078787 -2.437150 -0.361312 3.431229 6.651784 0.512485 -0.006119 -2.068354 0.041913 2.274134 3.648310 9.859646 -1.085272 -0.097390 0.089821 
58.941231 -43.847408 82.872765 -1.838460 -1.772288 -388.324012 -1.231550 -2.369118 3.309636 -0.496027 -0.981582 1.561150 -0.496028 -0.981582 1.561149 -0.369506 -0.737459 1.170040 -1.763764 -20.867891 1.899973 -2.643224 -2.556041 2.930812 9.757745 10.163876 0.084762 40.724282 -14.288471 -24.057156 -34.560938 -64.822095 102.535251 -54.397467 33.083155 38.512722 -8.948580 5.016130 -4.392154 -40.042517 -8.614443 26.629999 27.269459 -57.741777 -89.887571 30.920396 15.920833 -67.899839 2.016934 1.967971 -6.329174 4.064083 -19.193231 3.136938 11.419391 4.755126 20.210197 0.492133 -2.322491 -0.221590 3.452746 5.967838 0.470756 0.127859 -1.966935 0.037470 2.417223 3.985657 9.639964 -1.006404 -0.112761 0.085413 
59.013062 -43.712257 83.056183 -1.739464 -1.986703 -391.535895 -1.211779 -2.317501 3.409998 -0.490752 -0.957489 1.582571 -0.490751 -0.957489 1.582570 -0.365578 -0.719394 1.186135 -1.718425 -20.815635 1.904740 -2.558819 -2.459402 2.952413 9.810208 10.246008 0.099183 40.709669 -14.382963 -24.078539 -34.318784 -64.824765 102.375472 -54.343253 33.080741 38.526218 -8.948856 5.219782 -4.427963 -39.996696 -8.654970 26.666230 27.233004 -57.844804 -89.795957 30.873463 15.876843 -67.847507 2.301017 1.794548 -6.639151 4.026161 -18.432324 3.042432 10.393687 4.347503 19.173342 0.838065 -2.071236 -0.254420 3.515359 5.602223 0.674572 0.252973 -1.888840 0.134237 2.559328 3.921700 9.399998 -0.911585 0.117074 0.105231 
59.059826 -43.619251 83.216774 -1.642399 -2.240400 -394.619288 -1.137751 -2.250382 3.434585 -0.484602 -0.927542 1.602579 -0.484601 -0.927542 1.602578 -0.361013 -0.696935 1.201171 -1.681196 -20.770530 1.914975 -2.487590 -2.375966 2.981670 9.855147 10.376799 0.130766 40.712159 -14.444452 -24.186077 -34.131582 -64.877310 102.271052 -54.317851 33.090699 38.529951 -8.955782 5.465297 -4.436696 -39.954616 -8.721574 26.696033 27.247728 -57.965630 -89.734766 30.827656 15.809441 -67.799606 2.684780 1.646610 -6.783569 4.008620 -17.592879 2.714515 9.197995 3.938471 18.132808 1.243091 -1.876491 -0.210693 3.684348 5.157369 0.761382 0.335530 -1.826148 0.256313 2.662571 3.956452 9.479165 -0.829808 0.326123 0.090742 
59.145920 -43.506748 83.359627 -1.498585 -2.519835 -397.714375 -1.057825 -2.152715 3.518490 -0.474682 -0.897045 1.618906 -0.474681 -0.897046 1.618909 -0.353630 -0.674047 1.213459 -1.656573 -20.713722 1.943780 -2.433560 -2.270644 3.040907 9.903898 10.567553 0.178602 40.715386 -14.485808 -24.358917 -34.033535 -64.961793 102.234633 -54.319586 33.132882 38.520990 -8.966303 5.736797 -4.399984 -39.951013 -8.832706 26.742258 27.338512 -58.058848 -89.723551 30.778721 15.735892 -67.786554 3.126301 1.522260 -6.637526 3.971878 -16.725856 2.068226 7.951670 3.464752 17.239271 1.609161 -1.645768 -0.211400 3.806192 4.839775 0.778727 0.395929 -1.793287 0.363579 2.761714 3.887613 9.443390 -0.721920 0.558373 0.092896 
59.211048 -43.391087 83.482323 -1.297357 -2.745884 -400.701353 -1.016475 -2.078535 3.547649 -0.465220 -0.869627 1.627068 -0.465218 -0.869626 1.627069 -0.346595 -0.653465 1.219613 -1.634418 -20.623399 1.978808 -2.381640 -2.103084 3.110553 9.966479 10.708786 0.247798 40.716646 -14.442918 -24.508153 -33.993735 -65.067326 102.205223 -54.344810 33.206092 38.509795 -8.975685 5.904489 -4.396551 -40.004759 -8.895788 26.788162 27.372763 -58.091783 -89.643870 30.700529 15.707471 -67.777265 3.492919 1.419496 -6.373890 3.991347 -15.940244 0.983847 6.719845 3.021041 16.523194 -1.080884 -1.054403 -0.321393 3.848087 4.479227 0.571957 0.452019 -1.781739 0.476514 2.844146 3.839933 9.579400 -0.611628 0.795654 0.084973 
59.294022 -43.237518 83.586769 -1.087548 -2.946619 -403.617981 -0.981949 -2.041815 3.554352 -0.456371 -0.843386 1.635657 -0.456371 -0.843386 1.635658 -0.340017 -0.633767 1.226094 -1.615497 -20.524858 2.029463 -2.330685 -1.920231 3.207739 10.000557 10.779804 0.250696 40.761527 -14.389766 -24.556490 -33.929453 -65.149835 102.117065 -54.355588 33.292702 38.512367 -8.916554 5.862714 -4.375683 -40.098398 -8.867273 26.706419 27.280225 -58.083908 -89.465014 30.618953 15.689411 -67.769253 3.831522 1.201984 -6.121303 4.001187 -14.957672 -0.104450 5.579421 2.555862 16.007535 -2.969279 -0.358766 -0.424286 3.819235 4.143229 0.266431 0.527465 -1.796756 0.593636 2.933328 3.811035 9.736206 -0.493852 0.984913 0.081867 
59.368923 -43.068871 83.674591 -0.849674 -3.136801 -406.468765 -0.960579 -2.013525 3.529656 -0.445861 -0.811354 1.647620 -0.445861 -0.811354 1.647621 -0.332205 -0.609724 1.235106 -1.601300 -20.436201 2.081897 -2.287787 -1.755759 3.306912 10.030205 10.827440 0.214432 40.831574 -14.405535 -24.565950 -33.898359 -65.160886 102.039379 -54.342631 33.382283 38.542139 -8.866049 5.804090 -4.347089 -40.155594 -8.837364 26.633640 27.193807 -58.080746 -89.309040 30.567555 15.695201 -67.731250 4.104971 0.940860 -6.007694 3.960414 -13.884640 -0.618216 4.526772 2.131329 15.316397 -4.248000 0.400356 -0.533139 3.760374 3.796766 -0.044283 0.575128 -1.793017 0.752873 3.047133 3.801921 9.778334 -0.389560 1.151986 0.082363 
59.438465 -42.903000 83.749176 -0.564634 -3.372923 -409.344165 -0.925117 -1.939235 3.549692 -0.429324 -0.772933 1.666796 -0.429322 -0.772933 1.666792 -0.319881 -0.580876 1.249530 -1.584506 -20.343413 2.130904 -2.240995 -1.583689 3.400744 10.061723 10.850485 0.202393 40.878283 -14.449253 -24.568003 -33.956798 -65.127370 102.063052 -54.334326 33.469494 38.575184 -8.855464 5.885964 -4.307794 -40.172079 -8.844318 26.675828 27.186999 -58.137669 -89.243586 30.530529 15.674210 -67.623067 4.380015 0.736643 -5.939160 3.877906 -12.772714 -0.479797 3.451595 1.640285 14.420763 -5.027960 1.270115 -0.584404 3.709258 3.512233 -0.175213 0.607750 -1.741091 0.898743 3.172441 3.803485 9.891291 -0.283576 1.257370 0.083017 
59.502464 -42.729633 83.809753 -0.267468 -3.571862 -412.181453 -0.904272 -1.898029 3.565467 -0.411497 -0.738542 1.691049 -0.411497 -0.738541 1.691048 -0.306577 -0.555051 1.267769 -1.575462 -20.260045 2.191589 -2.204788 -1.429076 3.513645 10.119378 10.877989 0.266572 40.846983 -14.462080 -24.583505 -34.084673 -65.137527 102.200489 -54.373370 33.562057 38.581355 -8.837043 6.044216 -4.259011 -40.184004 -8.827169 26.759455 27.165775 -58.253830 -89.186664 30.479381 15.540979 -67.477631 4.625341 0.654800 -5.730691 3.767980 -11.932037 -0.253731 2.476895 1.184295 13.543410 -5.491843 2.272011 -0.640052 3.614898 3.206841 -0.224691 0.644650 -1.669875 1.006475 3.277546 3.793050 9.893176 -0.168769 1.371256 0.088795 
59.547813 -42.582851 83.860039 0.061858 -3.832733 -415.037756 -0.848592 -1.803056 3.646521 -0.389652 -0.714373 1.714021 -0.389652 -0.714372 1.714026 -0.290235 -0.536876 1.285047 -1.568937 -20.171639 2.247519 -2.174385 -1.265106 3.617215 10.204770 10.959875 0.359710 40.755168 -14.516908 -24.608147 -34.094088 -65.226906 102.277821 -54.458266 33.659640 38.567677 -8.804950 6.152134 -4.210094 -40.193027 -8.737062 26.779696 27.117659 -58.380523 -89.108834 30.418790 15.324001 -67.346697 4.909376 0.761078 -5.294109 3.668256 -11.278601 -0.299381 1.612967 0.682498 12.805139 -5.736901 3.361882 -0.678584 3.567607 3.000822 -0.217574 0.680721 -1.610992 1.110202 3.348649 3.813539 9.817237 -0.037866 1.431979 0.096003 
59.573208 -42.459267 83.898926 0.394181 -4.071520 -417.816113 -0.792007 -1.718156 3.724473 -0.371058 -0.703875 1.729026 -0.371058 -0.703874 1.729037 -0.276301 -0.528961 1.296334 -1.548458 -20.071698 2.302536 -2.118479 -1.080017 3.723455 10.273578 11.090318 0.401569 40.690350 -14.676487 -24.631416 -33.949845 -65.309914 102.231335 -54.576596 33.743392 38.516803 -8.724666 6.147301 -4.118222 -40.272657 -8.679824 26.657062 27.092439 -58.406819 -89.010991 30.383950 15.105973 -67.258655 5.181722 0.911182 -4.842969 3.605691 -10.686424 -0.559121 0.859857 0.155718 12.244805 -5.851862 4.450764 -0.717442 3.515957 2.820005 -0.246039 0.718941 -1.547739 1.211892 3.389100 3.815033 9.821552 0.097014 1.471219 0.100805 
59.584072 -42.338188 83.924545 0.708108 -4.258846 -420.466117 -0.765882 -1.675312 3.772944 -0.356729 -0.702666 1.738731 -0.356728 -0.702665 1.738731 -0.265546 -0.528020 1.303624 -1.490239 -19.954162 2.325176 -2.003168 -0.862904 3.782396 10.370310 11.163479 0.397158 40.626187 -14.806704 -24.632370 -33.735510 -65.331804 102.113596 -54.643928 33.778557 38.484626 -8.631092 6.062424 -4.088037 -40.335040 -8.659146 26.476929 27.119509 -58.356706 -88.979442 30.407398 14.954170 -67.156565 5.428946 0.992659 -4.664130 3.570978 -10.049187 -0.878750 0.196692 -0.363996 11.780843 -5.867144 5.490448 -0.753813 3.433851 2.616666 -0.351273 0.755666 -1.460436 1.344877 3.388360 3.865856 9.782994 0.256933 1.441486 0.099895 
